Coordinates
version=1
nRows=17
nColumns=24
inDegrees=yes

Units are S.I. units (second, meters, Newtons, ...)
Angles are in degrees.

endheader
time	pelvis_tilt	pelvis_list	pelvis_rotation	pelvis_tx	pelvis_ty	pelvis_tz	hip_flexion_r	hip_adduction_r	hip_rotation_r	knee_angle_r	ankle_angle_r	subtalar_angle_r	mtp_angle_r	hip_flexion_l	hip_adduction_l	hip_rotation_l	knee_angle_l	ankle_angle_l	subtalar_angle_l	mtp_angle_l	lumbar_extension	lumbar_bending	lumbar_rotation
      1.12883333	     -1.93395949	     -1.54600739	     -3.18774605	     -0.03913593	      0.97459259	      0.32720064	    -18.36720832	      3.47817847	     -1.29466809	     -1.03924055	     15.76341978	     -3.91752094	      2.60616236	     24.03475669	     -0.42563826	     -3.95037378	      6.03330069	     -3.55351488	     -5.31057822	      2.68496278	    -11.43565920	      6.91067799	      8.33881906
      1.13300000	     -1.91602115	     -1.39631006	     -3.15298993	     -0.03316345	      0.97379867	      0.32680996	    -18.49661266	      3.26479904	     -1.52196061	     -1.57069665	     16.00685859	     -3.57984367	      2.67336403	     24.02984517	     -0.18111472	     -3.80286283	      5.86504455	     -3.72778213	     -5.67453088	      2.72110620	    -11.42085208	      6.70701687	      8.32968355
      1.13716667	     -1.88483055	     -1.23788509	     -3.11755904	     -0.02716455	      0.97306519	      0.32639348	    -18.61021188	      3.03761540	     -1.78257512	     -2.16504949	     16.23433617	     -3.21146008	      2.75676669	     24.01608637	      0.07242037	     -3.62744170	      5.62038928	     -3.98113447	     -6.15748738	      2.77549265	    -11.40829388	      6.51512347	      8.31610664
      1.14133333	     -1.87199783	     -1.05711931	     -3.07875029	     -0.02113109	      0.97235498	      0.32597603	    -18.69061523	      2.78847074	     -2.01539792	     -2.78817973	     16.44661082	     -2.88631329	      2.84929334	     24.02870921	      0.34417766	     -3.41524911	      5.29846715	     -4.29261678	     -6.68562033	      2.84380458	    -11.37951938	      6.27992168	      8.29016622
      1.14550000	     -1.85579803	     -0.85131437	     -3.04094355	     -0.01506842	      0.97169263	      0.32554994	    -18.75780573	      2.51030191	     -2.24115954	     -3.44549434	     16.64458117	     -2.57710975	      2.95208053	     24.04107454	      0.63811248	     -3.16971569	      4.91353814	     -4.67710295	     -7.28751588	      2.92318901	    -11.35913763	      6.01385853	      8.25333041
      1.14966667	     -1.84279857	     -0.64621707	     -2.99280696	     -0.00897802	      0.97107301	      0.32509647	    -18.79561721	      2.23388521	     -2.47860937	     -4.16090680	     16.80883043	     -2.27229828	      3.07594042	     24.06580550	      0.93443002	     -2.90394261	      4.46330311	     -5.12079641	     -7.96662727	      3.01987767	    -11.32036042	      5.75120481	      8.21355149
      1.15383333	     -1.83290226	     -0.42210977	     -2.94377104	     -0.00285974	      0.97049278	      0.32463577	    -18.81862678	      1.93660465	     -2.69681228	     -4.89874011	     16.95076406	     -2.00196430	      3.21056245	     24.10321903	      1.24801500	     -2.62734130	      3.95163643	     -5.63507238	     -8.68924332	      3.12169971	    -11.27680918	      5.46199244	      8.15932464
      1.15800000	     -1.82658167	     -0.18372346	     -2.89206302	      0.00328307	      0.96995474	      0.32415208	    -18.81469777	      1.62261606	     -2.92243456	     -5.68392750	     17.05752784	     -1.74227021	      3.37016838	     24.14982276	      1.57638902	     -2.32810576	      3.39140020	     -6.20077914	     -9.46935556	      3.23469085	    -11.23247822	      5.16063047	      8.10103560
      1.16216667	     -1.82780336	      0.06426397	     -2.83734026	      0.00944392	      0.96945353	      0.32366265	    -18.78566159	      1.29932456	     -3.12799423	     -6.50444777	     17.13077627	     -1.52029528	      3.54728661	     24.21658329	      1.91410267	     -2.03501613	      2.77730390	     -6.81656184	    -10.27422072	      3.34694109	    -11.17497775	      4.84578881	      8.03443220
      1.16633333	     -1.83509124	      0.31991805	     -2.78066081	      0.01562139	      0.96899008	      0.32314725	    -18.72738389	      0.96596785	     -3.33342220	     -7.36943922	     17.15994051	     -1.31739051	      3.75787395	     24.29666093	      2.26034494	     -1.72716721	      2.12192126	     -7.46136154	    -11.10722386	      3.46314811	    -11.11649844	      4.52249155	      7.96226412
      1.17050000	     -1.84409264	      0.58446686	     -2.71742212	      0.02181401	      0.96857330	      0.32262036	    -18.64958525	      0.62545309	     -3.52556053	     -8.27012841	     17.14748578	     -1.15338433	      3.99580771	     24.38928684	      2.61745493	     -1.43193658	      1.42588357	     -8.13965902	    -11.95101214	      3.57204525	    -11.04308883	      4.18455489	      7.87841305
      1.17466667	     -1.86148077	      0.85571676	     -2.65391692	      0.02801734	      0.96819508	      0.32208068	    -18.54390815	      0.27749943	     -3.69865458	     -9.20615046	     17.08496518	     -1.02778070	      4.25701008	     24.50186295	      2.98080572	     -1.15470502	      0.68833524	     -8.82783245	    -12.78218888	      3.66808443	    -10.96818764	      3.84500622	      7.79434581
      1.17883333	     -1.82761151	      1.13778370	     -2.57771395	      0.03422911	      0.96792203	      0.32151472	    -18.48076914	     -0.08005317	     -3.87561333	    -10.15824080	     16.91055757	     -1.04497638	      8.28286711	     24.55850937	      3.36289028	     -0.85402038	     -0.06145495	     -9.50731317	    -13.62968810	      4.94006508	    -10.96392767	      3.49066954	      7.67450596
      1.18300000	     -1.89962688	      1.40800946	     -2.51510419	      0.04045072	      0.96757861	      0.32095607	    -18.27072394	     -0.42646918	     -4.00794706	    -11.17672352	     16.70877562	     -0.97282688	      8.35124714	     24.75870257	      3.72075014	     -0.65420993	     -0.89093494	    -10.15293884	    -14.35042752	      4.91136270	    -10.81040682	      3.14680135	      7.60761288
      1.18716667	     -1.91831964	      1.69195192	     -2.44252975	      0.04667384	      0.96734392	      0.32035913	    -18.09694427	     -0.78862299	     -4.15655462	    -12.23576456	     16.47875025	     -0.93792982	      8.48616115	     24.88958839	      4.10247540	     -0.39524528	     -1.70803597	    -10.77288233	    -15.14487331	      4.87044824	    -10.73687441	      2.79302543	      7.50729246
      1.19133333	     -1.93560152	      1.97627062	     -2.36427835	      0.05289777	      0.96715574	      0.31975595	    -17.90640518	     -1.14781791	     -4.28524090	    -13.32545996	     16.18456337	     -0.94335059	      8.71353397	     25.02821778	      4.48674073	     -0.15254795	     -2.55863858	    -11.31991553	    -15.90348605	      4.80743388	    -10.66162119	      2.42660730	      7.40804273
      1.19550000	     -1.97054170	      2.25733567	     -2.30190729	      0.05910819	      0.96700897	      0.31916212	    -17.65786023	     -1.50797394	     -4.37898681	    -14.48079814	     15.82697516	     -1.02255062	      8.95363145	     25.18616656	      4.85842226	      0.02182764	     -3.41598286	    -11.85689548	    -16.53363009	      4.73864121	    -10.57056520	      2.08156550	      7.29987612
